<?xml version="1.0" encoding="UTF-8" standalone="no"?>
<!-- Created with Inkscape (http://www.inkscape.org/) -->

<svg
   width="45.923447mm"
   height="55.118885mm"
   viewBox="0 0 45.923447 55.118885"
   version="1.1"
   id="svg1"
   xmlns="http://www.w3.org/2000/svg"
   xmlns:svg="http://www.w3.org/2000/svg">
  <defs
     id="defs1">
    <clipPath
       clipPathUnits="userSpaceOnUse"
       id="clipPath88">
      <path
         id="path89"
         style="fill:#ff0000;fill-opacity:1;fill-rule:nonzero;stroke:none;stroke-width:0.264583"
         d="m 91.03837,117.64863 -18.534784,5.3e-4 v 36.01691 H 115.22656 V 117.64915 H 91.858994 c 0.0032,0.008 0.0067,0.0152 0.0098,0.0233 0.0052,0.0136 0.0076,0.0175 0.01085,0.0243 0.0021,-10e-4 0.0021,0.003 0.0031,0.005 0.0033,0.005 0.007,0.0101 0.01035,0.015 0.01408,0.0218 0.02643,0.0444 0.03876,0.0672 h 5.29e-4 c 0.0045,0.003 0.0052,0.009 0.0078,0.0139 l 5.29e-4,5.3e-4 c 0.0084,0.0151 0.01606,0.03 0.02376,0.0455 -5.29e-4,-0.001 0.0011,0.003 0.0016,0.004 0.004,0.007 0.008,0.0148 0.01188,0.0222 0.06714,0.0487 0.134294,0.11431 0.198437,0.19948 0.02064,0.0274 0.0385,0.0565 0.05633,0.0858 0.0063,0.0101 0.01291,0.0188 0.02222,0.0325 0.01947,0.0294 0.01871,0.0302 0.03101,0.0481 h 5.29e-4 c 0.0051,0.007 0.01008,0.0147 0.01498,0.0217 0.0021,0.003 0.0033,0.006 0.0057,0.009 l 0.0041,0.006 c 0.0035,0.005 0.009,0.0135 0.01085,0.0165 0.0016,0.002 0.0067,0.009 0.0088,0.0124 0.0083,0.0124 0.01754,0.0267 0.0078,0.0114 0.01992,0.0278 0.03747,0.0574 0.05478,0.0868 0.0084,0.0122 0.01807,0.027 0.02687,0.0403 0.01651,0.0246 0.03286,0.0493 0.04857,0.0744 0.0168,0.0239 0.03238,0.0487 0.04857,0.0729 0.02019,0.032 0.04011,0.0641 0.06098,0.0956 0.02421,0.0378 0.04745,0.0758 0.06977,0.11473 0.02096,0.0341 0.04065,0.0689 0.05994,0.10387 0.02257,0.0402 0.04438,0.081 0.06666,0.12144 0.02794,0.0529 0.05591,0.10588 0.08217,0.15968 0.02257,0.0449 0.04334,0.0904 0.06356,0.13642 0.0093,0.0225 0.01873,0.0452 0.02687,0.0682 l 5.29e-4,5.3e-4 c 2.6e-5,-2.6e-4 0.0013,0.002 0.0021,0.004 7.93e-4,0.002 0.0013,0.003 0.0021,0.005 0.259527,0.60627 -0.189693,0.93314 -0.538466,0.63459 -2.07e-4,-9e-5 -2.65e-4,-5.3e-4 -5.3e-4,-5.3e-4 -0.118234,-0.0521 -0.23704,-0.16264 -0.330729,-0.34933 -5.29e-4,-0.001 -0.0011,-0.002 -0.0016,-0.003 -0.0109,-0.024 -0.02806,-0.045 -0.03979,-0.0687 -0.01725,-0.0273 -0.03344,-0.0554 -0.05064,-0.0827 -0.01606,-0.025 -0.03249,-0.0497 -0.04806,-0.0749 -0.02262,-0.0356 -0.0445,-0.0716 -0.06408,-0.10903 -0.01646,-0.0296 -0.03151,-0.0591 -0.04857,-0.0858 -0.01839,-0.0315 -0.04052,-0.0606 -0.05736,-0.093 -0.01913,-0.0348 -0.03712,-0.0702 -0.0553,-0.10542 -0.0087,-0.0178 -0.01881,-0.0368 -0.03049,-0.0574 0.006,0.007 2.64e-4,1.2e-4 -0.01035,-0.0191 -0.005,-0.009 -0.01299,-0.0215 -0.0186,-0.0315 -0.0029,-0.005 -0.0059,-0.01 -0.0088,-0.015 -0.01844,-0.0309 -0.03683,-0.062 -0.05426,-0.0935 -0.01246,-0.0224 -0.02717,-0.0435 -0.04031,-0.0656 -0.01651,-0.0269 -0.03273,-0.0537 -0.05064,-0.0796 -0.02148,-0.0327 -0.04345,-0.0649 -0.06305,-0.0987 -0.01945,-0.0319 -0.03916,-0.0638 -0.05788,-0.0961 -0.02296,-0.0403 -0.04461,-0.0812 -0.06563,-0.12247 -0.01474,-0.0301 -0.02917,-0.0606 -0.04444,-0.0904 -0.01463,-0.0277 -0.02896,-0.055 -0.04341,-0.0827 -0.0021,-0.004 -0.0099,-0.0104 -0.0057,-0.0124 0.0024,0.004 -0.0078,-0.0134 -0.0078,-0.0134 1.58e-4,2.6e-4 -5.3e-4,-0.001 -5.3e-4,-0.001 -2.64e-4,-5.3e-4 -2.27e-4,-10e-4 -0.0031,-0.006 -2.65e-4,-7.9e-4 -0.0064,-0.0112 -0.0083,-0.0145 -0.02228,-0.0355 -0.04572,-0.0702 -0.06305,-0.10852 -0.01871,-0.0395 -0.03624,-0.0799 -0.05012,-0.12144 -0.03473,-0.10402 -0.05044,-0.19793 -0.05219,-0.28164 z m -2.619478,0.59893 c 0.135533,-0.005 0.301713,0.0533 0.475941,0.20102 0.02929,0.0249 0.05675,0.0523 0.08526,0.078 0.0063,0.006 0.01286,0.0114 0.01913,0.017 0.08442,0.0302 0.174281,0.0808 0.266649,0.15709 0.01183,0.01 0.02381,0.0195 0.03566,0.0295 0.03259,0.0276 0.06484,0.0557 0.09715,0.0837 5.29e-4,2.6e-4 0.0011,7.9e-4 0.0016,0.001 0.02787,0.0149 0.05418,0.033 0.08165,0.0486 0.03439,0.0195 0.06806,0.0401 0.101285,0.0615 0.03307,0.0214 0.0643,0.0451 0.09612,0.0682 0.02768,0.0195 0.05468,0.0398 0.08113,0.061 0.02674,0.0208 0.0535,0.0457 0.07958,0.0703 0.02265,0.0222 0.045,0.0445 0.06666,0.0677 0.04277,0.0444 0.07491,0.0971 0.103351,0.15141 0.02302,0.0423 0.03737,0.0881 0.05581,0.13229 0.0099,0.021 0.01643,0.0437 0.02842,0.0636 0.0088,0.0172 0.01966,0.0331 0.03411,0.0548 0.02535,0.0395 0.05005,0.0797 0.07338,0.12041 0.02196,0.0361 0.0421,0.0731 0.06046,0.1111 0.02961,0.0605 0.04785,0.12509 0.06201,0.19069 0.009,0.0429 0.01466,0.0865 0.0181,0.13022 0.0013,0.0255 0.0011,0.0135 0.0021,0.0357 0.0016,0.0364 -0.007,0.0628 -0.0088,0.0961 0.0016,0.007 0.0038,0.014 0.0052,0.0212 0.01222,0.0533 0.02381,0.10693 0.03101,0.16123 0.0053,0.0417 0.0096,0.0837 0.01291,0.12558 0.0045,0.0381 0.01267,0.0756 0.01757,0.11369 0.0038,0.0283 0.0083,0.0563 0.01447,0.0842 0.0011,0.006 0.0032,0.0121 0.0041,0.0181 0.0019,0.006 0.0029,0.0102 0.0057,0.0202 0.0029,0.01 0.0046,0.0163 0.01344,0.0413 0.0071,0.0223 0.01426,0.0448 0.02223,0.0677 2.65e-4,8e-4 5.29e-4,0.002 0.0011,0.002 5.29e-4,7.9e-4 5.29e-4,0.002 0.0011,0.003 0.0088,0.0167 0.0176,0.0332 0.02479,0.0507 0.01545,0.0382 0.03027,0.077 0.03927,0.1173 0.0078,0.0344 0.0154,0.0687 0.0186,0.10387 v 5.3e-4 c 0.07349,0.80877 -0.639429,0.89443 -0.813903,0.10128 -5.29e-4,-0.002 7.7e-5,0.003 -5.29e-4,-0.004 v -5.2e-4 c -0.0013,-0.002 -0.0029,-0.005 -0.0041,-0.007 -7.93e-4,-0.002 -0.0011,-0.002 -0.0016,-0.003 -5.29e-4,-7.9e-4 -5.29e-4,-0.002 -0.0011,-0.003 -5.3e-4,-0.001 -0.0011,-0.002 -0.0016,-0.003 -0.01646,-0.0329 -0.02995,-0.0668 -0.04134,-0.1018 -0.0085,-0.0234 -0.01553,-0.047 -0.02273,-0.0708 -7.94e-4,-0.002 0.0013,0.005 0.0021,0.008 -0.009,-0.027 -0.01093,-0.0323 -0.02223,-0.0698 -0.0077,-0.0232 -0.01876,-0.0681 -0.02687,-0.10697 -0.0098,-0.0453 -0.01685,-0.0916 -0.02326,-0.13746 -0.0064,-0.0406 -0.01381,-0.0806 -0.01913,-0.12144 -0.0043,-0.0417 -0.0076,-0.0836 -0.01291,-0.12506 -0.004,-0.0276 -0.01035,-0.055 -0.01654,-0.0822 -0.0047,-0.028 -0.01381,-0.0547 -0.02222,-0.0817 -0.007,-0.0211 -0.01503,-0.0417 -0.02273,-0.0625 -0.01061,-0.0228 -0.01932,-0.0467 -0.02791,-0.0703 -0.014,-0.0429 -0.02643,-0.0862 -0.03824,-0.12971 -0.0079,-0.0305 -0.01707,-0.0605 -0.02687,-0.0904 -0.0083,-0.0186 -0.01397,-0.0384 -0.02376,-0.0563 -0.01545,-0.0303 -0.02915,-0.0613 -0.04496,-0.0915 5.29e-4,-5.3e-4 -0.0056,-0.0106 -0.0098,-0.017 -0.0176,-0.0251 -0.03639,-0.0492 -0.0553,-0.0734 -0.01032,-0.0133 -0.0204,-0.0266 -0.03204,-0.0388 -0.02326,-0.0213 -0.04598,-0.0437 -0.06873,-0.0656 -0.03307,-0.0298 -0.06524,-0.0604 -0.09818,-0.0904 -0.0417,-0.0384 -0.08565,-0.0748 -0.128675,-0.11162 -0.0098,-0.008 -0.01968,-0.0168 -0.02946,-0.0253 -0.02997,-0.0176 -0.05956,-0.0359 -0.0894,-0.0537 -0.03446,-0.0217 -0.06929,-0.0425 -0.102835,-0.0656 -0.02939,-0.0203 -0.05906,-0.0401 -0.08837,-0.0605 -0.03454,-0.0251 -0.06875,-0.0505 -0.101804,-0.0775 -0.03525,-0.0288 -0.07013,-0.0587 -0.103351,-0.0899 -0.02204,-0.0202 -0.04338,-0.041 -0.06563,-0.061 v 0.002 c -0.434258,-0.39004 -0.288489,-0.81247 0.05788,-0.82424 z M 74.75461,131.69894 h 5.3e-4 c 0.09616,-0.003 0.209618,0.0612 0.316261,0.18965 0.05781,-0.0193 0.06795,-0.0708 -0.01963,-0.18707 0.0032,0.004 0.0061,0.007 0.0093,0.0109 0.0064,0.007 0.01344,0.0142 0.02016,0.0212 0.02463,0.024 0.04878,0.0484 0.07235,0.0734 0.02861,0.0299 0.0551,0.0617 0.08165,0.0935 0.02355,0.0279 0.04628,0.0565 0.06873,0.0853 0.01394,0.0168 0.02739,0.0338 0.04186,0.0501 0.01386,0.0154 0.02787,0.0307 0.04237,0.0455 0.01847,0.0186 0.03779,0.0367 0.05633,0.0553 0.01188,0.0119 0.02315,0.024 0.03617,0.0346 0.01619,0.0153 0.03411,0.0291 0.05116,0.0434 0.01701,0.0136 0.03387,0.0269 0.05064,0.0408 0.01511,0.013 0.02995,0.0267 0.04496,0.0398 0.0136,0.0116 0.02638,0.0241 0.04031,0.0351 0.01659,0.0133 0.03306,0.0265 0.04961,0.0398 0.02508,0.0184 0.04589,0.0419 0.07028,0.061 0.02289,0.0194 0.04647,0.0385 0.06976,0.0574 0.0272,0.0217 0.05432,0.0436 0.08217,0.0646 0.02445,0.0187 0.0489,0.0375 0.07441,0.0548 0.03669,0.0252 0.07296,0.0511 0.109554,0.0765 0.03198,0.0222 0.06438,0.0434 0.09767,0.0636 0.03839,0.0231 0.0769,0.0457 0.114721,0.0698 0.02893,0.019 0.05837,0.0375 0.08837,0.0548 0.0236,0.0114 0.04721,0.0227 0.07079,0.0341 0.03433,0.0158 0.06855,0.0316 0.102839,0.0475 0.0333,0.0154 0.06724,0.03 0.100769,0.045 0.03104,0.0137 0.06262,0.0256 0.09508,0.0357 0.01558,0.005 0.0311,0.0115 0.04703,0.0155 -5.29e-4,-1e-4 5.29e-4,-1.1e-4 0.0011,0 0.02643,0.007 0.01651,0.004 0.04031,0.0119 0.145685,0.0452 0.161663,0.0939 0.117822,0.14418 0.01365,0.005 0.02722,0.01 0.04082,0.0155 0.532241,0.21557 0.314132,0.75364 -0.218075,0.53795 -0.02289,-0.009 -0.04551,-0.0199 -0.06873,-0.0279 -0.07967,-0.0303 -0.159163,-0.0625 -0.237712,-0.0956 -0.06822,-0.0308 -0.137422,-0.0616 -0.197403,-0.10697 -0.02387,-0.0103 -0.04797,-0.0208 -0.07183,-0.031 -0.0265,-0.0113 -0.05318,-0.0225 -0.07958,-0.0341 -0.02942,-0.0126 -0.05868,-0.0235 -0.08785,-0.0367 -0.02609,-0.012 -0.05186,-0.0243 -0.07752,-0.0372 -0.02598,-0.0136 -0.05156,-0.0275 -0.07648,-0.0429 -0.02305,-0.014 -0.04556,-0.0287 -0.06821,-0.0434 -0.01569,-0.0106 -0.03118,-0.021 -0.04754,-0.031 -0.02548,-0.016 -0.05041,-0.0324 -0.07545,-0.0491 -0.0275,-0.019 -0.05476,-0.0378 -0.08113,-0.0584 -0.02387,-0.0181 -0.04872,-0.0361 -0.07131,-0.0558 -0.01201,-0.009 -0.02352,-0.0184 -0.03565,-0.0274 -0.01278,-0.009 -0.02716,-0.0189 -0.03772,-0.0279 -0.0177,-0.0129 -0.03555,-0.025 -0.05323,-0.0377 -0.01204,-0.009 -0.02394,-0.0178 -0.03617,-0.0269 -0.0164,-0.0115 -0.03266,-0.0247 -0.04858,-0.0367 -0.02043,-0.0151 -0.04126,-0.0298 -0.06046,-0.0465 -0.02371,-0.0191 -0.04752,-0.037 -0.06925,-0.0584 -0.01204,-0.0124 -0.02524,-0.0227 -0.03772,-0.0346 0.0028,0.002 -0.02906,-0.0204 -0.01704,-0.0119 -0.019,-0.0128 -0.03829,-0.0269 -0.05685,-0.0403 -0.02077,-0.0145 -0.0419,-0.0283 -0.06253,-0.0429 -0.03057,-0.022 -0.06039,-0.0465 -0.0863,-0.0739 -0.01561,-0.016 -0.03116,-0.0324 -0.04599,-0.0491 -0.006,-0.007 -0.01183,-0.0126 -0.0181,-0.0186 -0.0047,-0.005 -0.0098,-0.01 -0.01447,-0.015 v -5.3e-4 c -0.01431,-0.0139 -0.02813,-0.0284 -0.03928,-0.0398 -0.01953,-0.0195 -0.01413,-0.0155 -0.03307,-0.0336 -0.01889,-0.0183 -0.03792,-0.036 -0.05529,-0.0558 -0.01741,-0.0198 -0.03591,-0.0386 -0.05271,-0.0589 -0.0182,-0.0218 -0.03572,-0.0438 -0.05116,-0.0677 -0.0082,-0.0128 -0.01995,-0.0241 -0.02842,-0.0367 v -5.3e-4 c -0.07062,-0.10488 -0.09331,-0.19793 -0.0987,-0.28214 -0.02999,-0.0528 -0.02556,-0.0831 5.29e-4,-0.0997 0.02503,-0.1118 0.10445,-0.1846 0.210841,-0.18759 z m -0.595312,2.31459 c 0.01347,0.004 0.0267,0.009 0.04031,0.0129 0.0011,2.7e-4 5.3e-4,2.1e-4 0.0016,5.3e-4 5.29e-4,5e-5 0.0011,5.3e-4 0.0016,5.3e-4 0.0146,0.001 0.02885,0.003 0.04341,0.006 0.02857,0.005 0.05651,0.0121 0.08475,0.0181 0.02823,0.007 0.05659,0.0129 0.08475,0.0202 0.02951,0.007 0.0588,0.0148 0.08785,0.0238 0.02209,0.007 0.04406,0.0129 0.06615,0.0202 0.0249,0.008 0.04968,0.0153 0.07442,0.0243 0.02585,0.01 0.0522,0.0179 0.07803,0.0279 0.019,0.006 0.03775,0.0131 0.05685,0.0191 0.02622,0.008 0.05175,0.0179 0.07752,0.0269 0.02759,0.01 0.05474,0.0208 0.08165,0.0326 0.01609,0.007 0.03255,0.013 0.04857,0.0201 0.02492,0.0109 0.0493,0.0225 0.0739,0.0341 l 0.0067,0.003 c 0.0011,5.3e-4 0.02363,0.0111 0.02894,0.0139 0.005,0.003 0.01,0.006 0.01498,0.008 2.65e-4,1.7e-4 0.0013,1.8e-4 0.0011,0 -0.0019,-0.001 -0.0037,-0.002 -0.0057,-0.003 0.004,0.002 0.0019,2.6e-4 0.0036,0.001 0.0026,2.1e-4 0.0029,7.9e-4 0.0041,0.001 0.02522,0.005 0.05095,0.007 0.07648,0.009 0.02671,0.003 0.05377,0.004 0.08062,0.005 0.02702,5.3e-4 0.0541,7.9e-4 0.08113,10e-4 0.04707,-8e-4 0.09315,0.006 0.13901,0.016 0.0492,0.0106 0.09674,0.0269 0.144176,0.0434 0.02857,0.01 0.05701,0.0205 0.08578,0.0295 0.02432,0.008 0.04914,0.0142 0.0739,0.0212 0.02943,0.007 0.05891,0.0128 0.08837,0.0196 0.03244,0.008 0.06441,0.0153 0.09663,0.0243 0.01736,0.004 0.03511,0.009 0.05271,0.0119 0.01447,10e-4 0.02893,0.003 0.04341,0.005 0.0199,0.003 0.0399,0.005 0.05995,0.007 0.02773,10e-4 0.05509,0.006 0.08268,0.009 0.03519,0.003 0.07009,0.008 0.104905,0.0139 0.02416,0.003 0.04786,0.008 0.07183,0.0124 0.0051,-0.001 0.01386,0.004 0.02016,0.004 0.142065,-0.001 0.242951,0.0393 0.306443,0.0987 0.03189,5.2e-4 0.0638,0.002 0.0956,0.005 v -0.002 c 0.28865,0.0241 0.130183,0.12753 -0.02739,0.24598 -0.02177,0.0817 -0.08454,0.15257 -0.183451,0.1943 -0.01177,0.0513 0.02381,0.0987 0.146761,0.13643 -0.01635,-3e-5 -0.03275,-2.1e-4 -0.04909,-5.3e-4 -0.02979,-5.3e-4 -0.0613,-8e-4 -0.09095,-0.001 -0.104687,-5.3e-4 -0.209497,-7.9e-4 -0.314192,-0.001 -0.08028,0.001 -0.160224,2.7e-4 -0.240295,-0.007 -0.07561,-0.006 -0.151056,-0.0166 -0.225827,-0.0289 -0.05607,-0.009 -0.111572,-0.0209 -0.167431,-0.0315 -0.04655,-0.009 -0.09286,-0.0196 -0.13901,-0.0305 -0.03905,-0.009 -0.07815,-0.0174 -0.117305,-0.0263 -0.04056,-0.01 -0.08135,-0.0191 -0.121957,-0.0289 -0.04351,-0.009 -0.08658,-0.0192 -0.129707,-0.03 -0.04549,-0.0117 -0.09098,-0.0242 -0.136427,-0.0362 -0.05175,-0.0137 -0.102883,-0.0285 -0.153993,-0.0444 -0.05626,-0.0167 -0.110982,-0.0378 -0.165883,-0.0584 -0.04738,-0.0184 -0.09473,-0.037 -0.141592,-0.0568 -0.04237,-0.0191 -0.08461,-0.039 -0.126092,-0.0599 -0.02006,-0.01 -0.0094,-0.005 -0.03101,-0.016 -0.09086,-0.0472 -0.157136,-0.10232 -0.201538,-0.15968 -0.01741,-0.004 -0.03459,-0.009 -0.05219,-0.0119 -0.0032,-0.001 -0.0067,-0.001 -0.0098,-0.002 -0.0078,-7.9e-4 -0.01553,8e-4 -0.02326,-0.003 -0.02601,-0.004 -0.05174,-0.009 -0.077,-0.0176 -0.03201,-0.009 -0.06377,-0.019 -0.09508,-0.0305 v -0.001 c -0.539163,-0.19763 0.747993,-0.32482 0.214974,-0.53847 z m -0.01963,0.59066 c -0.0021,-2.6e-4 0.0045,7.9e-4 0.0067,0.001 0.0035,2.6e-4 0.01445,7.9e-4 0.01085,5.3e-4 -0.0059,-5.3e-4 -0.01172,-0.001 -0.01757,-0.002 z" />
    </clipPath>
  </defs>
  <g
     id="layer1"
     transform="translate(-69.302897,-98.547198)">
    <path
       d="m 115.22635,117.64902 c -2.54,0.4572 -4.826,1.0668 -6.9596,2.3368 -2.794,-1.3716 -5.7404,-1.9812 -9.093202,-1.9812 -6.4008,0 -12.0904,1.8288 -16.764,5.3848 -5.130799,3.9116 -8.026399,9.0932 -8.026399,13.6652 0,4.8768 2.9464,7.9248 7.264399,7.9248 5.1308,0 9.1948,-4.6228 9.1948,-11.1252 0,-1.3208 -0.2032,-2.3368 -0.4572,-3.2004 l -0.3556,0.0508 c 0.254,1.1176 0.4064,2.1844 0.4064,3.2004 0,5.9944 -4.0132,10.4648 -8.2296,10.4648 -3.4036,0 -5.892799,-2.9464 -5.892799,-7.62 0,-4.318 2.235199,-8.8392 6.502399,-12.5984 4.064,-3.556 9.8044,-5.6896 15.5956,-5.6896 3.962402,0 6.908802,0.8128 8.636002,2.3368 -5.4356,3.4036 -8.839202,9.144 -12.801602,16.0528 -6.0452,10.4648 -10.0076,16.4084 -15.748,16.4084 -1.981199,0 -3.251199,-0.7112 -3.809999,-1.9812 0.1016,0.0508 0.254,0.0508 0.3556,0.0508 0.762,0 1.3716,-0.8128 1.3716,-1.6256 0,-0.8636 -0.8636,-1.6256 -1.8796,-1.6256 -1.0668,0 -2.032,0.9144 -2.032,2.032 0,1.9304 2.2352,3.556 5.588,3.556 6.502399,0 12.445999,-4.7244 17.830799,-14.224 4.724402,-8.2804 7.975602,-14.5288 11.887202,-17.78 1.0668,1.27 1.5748,2.6924 1.5748,4.4704 0,4.826 -4.064,9.3472 -8.9916,9.3472 -0.406402,0 -0.609602,0 -0.609602,0 l -0.4064,0.6096 c 0.863602,-0.1524 1.574802,-0.254 2.133602,-0.254 3.048,0 5.08,2.3876 5.08,6.5024 0,2.3876 -1.1176,5.5372 -2.9464,7.7216 -1.6764,1.9812 -3.5052,2.9972 -5.588002,2.9972 -2.3876,0 -3.7592,-1.3208 -3.7592,-3.3528 0,-1.4224 0.5588,-2.5908 1.5748,-3.1496 -0.508,-0.4064 -0.9144,-0.6096 -1.524,-0.6096 -1.6764,0 -2.8956,1.3208 -2.8956,3.2512 0,2.4892 2.2352,4.318 5.8928,4.318 2.946402,0 5.943602,-1.1176 8.128002,-3.048 2.5908,-2.286 4.1148,-5.6896 4.1148,-9.0424 0,-3.556 -2.3876,-5.8928 -6.4516,-5.8928 -0.254,0 -0.4572,0 -0.6604,0 5.7912,-0.762 9.6012,-4.572 9.6012,-8.9916 0,-2.3876 -1.0668,-4.4196 -3.048,-5.9436 1.9812,-1.4732 4.0132,-2.1844 6.1976,-2.4892 z"
       id="text1"
       clip-path="url(#clipPath88)"
       style="font-weight:500;font-size:50.8px;font-family:Snell;-inkscape-font-specification:'Snell Medium';fill:#000083;stroke-width:0.264583"
       aria-label="B" />
    <path
       d="m 88.7085,105.81159 c -0.1016,0.7112 -0.2032,1.3208 -0.2032,1.6764 0,2.3368 1.9812,4.1148 5.1308,4.1148 5.2832,0 9.1948,-4.1656 9.1948,-8.0264 0,-3.048 -2.2352,-5.029196 -5.8928,-5.029196 -4.2672,0 -11.2268,2.844796 -17.6784,8.940796 -6.6548,6.2992 -9.9568,13.3096 -9.9568,18.1864 0,5.4864 3.2512,9.0424 8.636,9.0424 3.3528,0 6.8072,-1.3716 10.0076,-3.9624 3.048,-2.4892 4.6736,-5.588 4.6736,-8.7376 0,-3.048 -2.1336,-5.1308 -5.334,-5.1308 -3.0988,0 -6.0452,2.3368 -7.5692,6.5532 l 0.3556,0.1524 c 1.3716,-4.0132 4.1148,-6.1468 6.7056,-6.1468 2.1844,0 3.8608,1.8288 3.8608,4.6228 0,2.3368 -1.3208,5.5372 -3.7084,8.0772 -2.3876,2.54 -5.334,3.9116 -7.874,3.9116 -3.9624,0 -6.35,-2.8956 -6.35,-7.8232 0,-5.2832 2.6416,-11.5316 7.9756,-17.4244 5.9944,-6.6548 12.6492,-9.804396 16.51,-9.804396 2.4892,0 4.0132,1.473196 4.0132,3.505196 0,2.032 -1.016,4.2164 -2.9972,6.0452 -1.7272,1.6256 -3.6068,2.4384 -5.334,2.4384 -2.3876,0 -4.0132,-1.524 -4.0132,-3.7592 0,-0.4572 0.0508,-0.9144 0.1524,-1.3716 z"
       id="text2"
       style="font-weight:500;font-size:50.8px;font-family:Snell;-inkscape-font-specification:'Snell Medium';fill:#bebfc5;fill-opacity:1;stroke-width:0.265"
       aria-label="C" />
  </g>
</svg>
